<svg xmlns="http://www.w3.org/2000/svg" viewBox="0 0 33.50004 34.97681"><defs><style>.cls-1{fill:#2d2d2d;}.cls-2{fill:#ccac86;}</style></defs><title>Ресурс 47</title><g id="Слой_2" data-name="Слой 2"><g id="Слой_1-2" data-name="Слой 1"><path class="cls-1" d="M3.375,22.17584q.69379-.05328,1.38733-.10669V7.94446H8.57914a11.4113,11.4113,0,0,0-.20569,2.16669.72223.72223,0,0,0,1.44446,0,10.06,10.06,0,0,1,.23291-2.16669h9.64563a10.08318,10.08318,0,0,1,.23279,2.16669.72229.72229,0,0,0,1.44458,0A11.38144,11.38144,0,0,0,21.168,7.94446h3.81665v12.6842a12.46644,12.46644,0,0,1,1.44434.82172V7.52155l1.44446-1.44446V22.0899l-.24475.24481q.54932.4519,1.07764.96478l.3999-.39984a.72237.72237,0,0,0,.21167-.51074V4.33331c0-.01819-.00293-.03607-.004-.054l-.00208-.02509a.70248.70248,0,0,0-.0459-.18433l-.00317-.013-.00781-.01562c-.00757-.01758-.01672-.03406-.02563-.05084-.00781-.01471-.01587-.02972-.0249-.04358-.00952-.01532-.02026-.02948-.03088-.04395-.01038-.01385-.02051-.028-.03186-.041-.01147-.01331-.02417-.0257-.03662-.03815-.01245-.01215-.02454-.02454-.0376-.03607s-.02734-.02167-.0415-.03241c-.01453-.01068-.02869-.02106-.04346-.03058-.0144-.00928-.02942-.01733-.04443-.02515-.01648-.009-.03271-.01764-.04968-.02515l-.01624-.00806-.01318-.00348a.72715.72715,0,0,0-.18384-.04565l-.02649-.002c-.0177-.00146-.035-.004-.05286-.004H23.0369A6.1995,6.1995,0,0,0,17.76237,0a5.41514,5.41514,0,0,0-3.65784,1.50714,5.88057,5.88057,0,0,0-3.52368,2.104H6.929a.73807.73807,0,0,0-.13843.01355L6.78813,3.625a.70857.70857,0,0,0-.175.06238c-.01416.007-.02783.01416-.04138.022a.71884.71884,0,0,0-.1532.11322L3.53031,6.71088a.74564.74564,0,0,0-.09021.1095c-.007.01068-.0116.02252-.01819.03351l-.0061.01129c-.0072.0127-.0144.02515-.02075.03839-.00659.01392-.01538.02661-.02136.041-.00671.01593-.00989.03265-.01526.04883a.68634.68634,0,0,0-.02612.08582L3.33207,7.081V7.0827a.70316.70316,0,0,0-.01416.13953V22.18909C3.33842,22.18677,3.354,22.17749,3.375,22.17584ZM26.85233,5.05554,25.40775,6.5H20.78007A9.69886,9.69886,0,0,0,20.148,5.05554Zm-9.09-3.61108A4.46912,4.46912,0,0,1,21.368,3.61115H19.16581a6.16661,6.16661,0,0,0-2.731-1.91217A3.64579,3.64579,0,0,1,17.76237,1.44446ZM14.72782,2.8941c.04858-.002.09692-.00519.14563-.00519a3.836,3.836,0,0,1,2.202.72223h-2.9187A6.2692,6.2692,0,0,1,14.72782,2.8941Zm-3.46,2.16144h7.21155A7.59207,7.59207,0,0,1,19.24906,6.5H10.498A7.58588,7.58588,0,0,1,11.26786,5.05554Zm-3.61658,0H9.59892A9.7115,9.7115,0,0,0,8.96684,6.5H7.65128ZM6.20683,6.07709V6.5h-.423Z"/><path class="cls-2" d="M22.31742,34.97681a.74907.74907,0,0,1-.75-.749V31.15063H.75a.74966.74966,0,0,1-.53027-1.28027l3.64355-3.64062L.21977,22.58325A.75021.75021,0,0,1,.75,21.303H21.56645c-.00391-1.81348-.00293-2.61523.01172-2.998a.44892.44892,0,0,1,.0293-.31934l.002.001a.391.391,0,0,1,.03711-.09473.75083.75083,0,0,1,1.1416-.249c.37988.293,10.418,7.98926,10.418,7.98926a.74861.74861,0,0,1,0,1.18945l-10.43262,8A.74629.74629,0,0,1,22.31742,34.97681ZM2.56156,29.65063H22.31742a.74853.74853,0,0,1,.75.751V32.7063l8.4502-6.47949-4.44043-3.4043c-1.917-1.46973-3.18262-2.44043-4.01172-3.10059,0,.83105.001,1.80371.002,2.33008a.74853.74853,0,0,1-.75.751H2.55961l2.89453,2.89746a.74973.74973,0,0,1,0,1.06055Z"/></g></g></svg>