<svg xmlns="http://www.w3.org/2000/svg" viewBox="0 0 43 43"><defs><style>.cls-1{fill:#d9c2a9;}.cls-2{fill:#fff;}</style></defs><title>Ресурс 85</title><g id="Слой_2" data-name="Слой 2"><g id="Слой_1-2" data-name="Слой 1"><circle class="cls-1" cx="21.5" cy="21.5" r="21.5"/><path class="cls-2" d="M28.9751,12.09969h-3.25v-1.2373a1.05131,1.05131,0,0,0-1.0625-1.0625H18.3374a1.05131,1.05131,0,0,0-1.0625,1.0625v1.2373h-3.25a1.62042,1.62042,0,0,0-1.6377,1.6377v17.8252a1.62042,1.62042,0,0,0,1.6377,1.6377H28.9751a1.62042,1.62042,0,0,0,1.6377-1.6377V13.73739A1.62042,1.62042,0,0,0,28.9751,12.09969Zm-9.5752,1.72559V11.92489h4.19971v1.90039Zm-1.0625,2.125h6.3252a1.05131,1.05131,0,0,0,1.0625-1.0625v-.66211H28.4873V31.07528H14.5127V14.22567H17.2749v.66211A1.05131,1.05131,0,0,0,18.3374,15.95028Z"/><path class="cls-2" d="M16.29736,19.20028a1.05131,1.05131,0,0,0,1.0625,1.0625h8.28027a1.0625,1.0625,0,1,0-.00049-2.125H17.35986A1.05131,1.05131,0,0,0,16.29736,19.20028Z"/><path class="cls-2" d="M25.64014,22.45028H17.35986a1.0625,1.0625,0,0,0,0,2.125h8.28027a1.0625,1.0625,0,0,0,0-2.125Z"/><path class="cls-2" d="M25.64014,26.72078H17.35986a1.0625,1.0625,0,0,0,0,2.125h8.28027a1.0625,1.0625,0,0,0,0-2.125Z"/></g></g></svg>