<svg xmlns="http://www.w3.org/2000/svg" viewBox="0 0 43 43"><defs><style>.cls-1{fill:#d9c2a9;}.cls-2{fill:#fff;}</style></defs><title>Ресурс 86</title><g id="Слой_2" data-name="Слой 2"><g id="Слой_1-2" data-name="Слой 1"><circle class="cls-1" cx="21.5" cy="21.5" r="21.5"/><path class="cls-2" d="M27.85353,21.47474l-1.56632-.70737a4.08749,4.08749,0,0,1-.45474-.25263,7.08464,7.08464,0,0,0,1.51579-4.42105C27.323,12.45579,24.7209,9.5,21.51248,9.5S15.702,12.45579,15.702,16.09368a7.08464,7.08464,0,0,0,1.51579,4.42105c-.15158.07579-.30316.17684-.45474.25263l-1.56632.70737a6.75912,6.75912,0,0,0-3.99158,6.13895v2.75368A3.1484,3.1484,0,0,0,14.33774,33.5H28.662a3.1484,3.1484,0,0,0,3.13263-3.13263V27.61368A6.71241,6.71241,0,0,0,27.85353,21.47474Zm-6.34105-9.85263c2.04632,0,3.68842,2.02105,3.68842,4.47158s-1.64211,4.49684-3.68842,4.49684-3.68842-2.02105-3.68842-4.47158S19.46617,11.62211,21.51248,11.62211Zm8.18526,18.74526a1.0135,1.0135,0,0,1-1.01053,1.01053H14.363a1.03546,1.03546,0,0,1-1.03579-1.01053V27.61368a4.60154,4.60154,0,0,1,2.72842-4.21895l1.56632-.70737a7.59979,7.59979,0,0,0,1.2379-.73263,5.36319,5.36319,0,0,0,2.65263.73263,5.0471,5.0471,0,0,0,2.65263-.73263,7.6,7.6,0,0,0,1.23789.73263l1.56632.70737a4.62831,4.62831,0,0,1,2.72842,4.21895Z"/></g></g></svg>