<svg xmlns="http://www.w3.org/2000/svg" viewBox="0 0 43 43"><defs><style>.cls-1{fill:#d9c2a9;}.cls-2{fill:#fff;}</style></defs><title>Ресурс 87</title><g id="Слой_2" data-name="Слой 2"><g id="Слой_1-2" data-name="Слой 1"><circle class="cls-1" cx="21.5" cy="21.5" r="21.5"/><path class="cls-2" d="M31.19313,13.13219a6.191,6.191,0,0,0-1.50563-2.25875,6.42523,6.42523,0,0,0-2.34562-1.40031A9.26293,9.26293,0,0,0,24.29594,9H14.56438V21.255h-3.2825v2.03094h3.2825v3.44h-3.2825v2.03094h3.2825V34H16.945V28.75656h8.56125V26.72563H16.945V23.28594h7.35062a9.26425,9.26425,0,0,0,3.04594-.47312,6.41511,6.41511,0,0,0,2.34562-1.4,6.17932,6.17932,0,0,0,1.50563-2.25844,8.14354,8.14354,0,0,0,.52531-3.01125A8.146,8.146,0,0,0,31.19313,13.13219Zm-3.39625,6.8625A6.15944,6.15944,0,0,1,23.77,21.255H16.945V11.03094H23.77a6.158,6.158,0,0,1,4.02688,1.26094,4.68516,4.68516,0,0,1,1.54094,3.85156A4.68585,4.68585,0,0,1,27.79688,19.99469Z"/></g></g></svg>