<svg xmlns="http://www.w3.org/2000/svg" viewBox="0 0 43 43"><defs><style>.cls-1{fill:#d9c2a9;}.cls-2{fill:#fff;}</style></defs><title>Ресурс 88</title><g id="Слой_2" data-name="Слой 2"><g id="Слой_1-2" data-name="Слой 1"><circle class="cls-1" cx="21.5" cy="21.5" r="21.5"/><path class="cls-2" d="M34.19434,23.49414a3.0367,3.0367,0,0,0-.92969-2.167,2.90251,2.90251,0,0,0,.47852-1.93652,3.148,3.148,0,0,0-3.10645-2.748H26.271l.25977-2.0127A5.04853,5.04853,0,0,0,21.48242,8.875a2.15053,2.15053,0,0,0-1.50977.626,2.08011,2.08011,0,0,0-.626,1.47559v2.84375a6.48885,6.48885,0,0,1-.98682,3.43555l-1.21338,1.94141a1.57664,1.57664,0,0,1-.51953.50977,1.98032,1.98032,0,0,0-1.83643-1.26172h-3.9873a1.99927,1.99927,0,0,0-1.99756,1.99707V32.12793A1.99927,1.99927,0,0,0,10.80322,34.125h4.05664a1.99927,1.99927,0,0,0,1.99756-1.99707v-.00879a5.196,5.196,0,0,0,3.23828,1.13965h8.80713a3.23409,3.23409,0,0,0,2.23828-.93848,2.81068,2.81068,0,0,0,.834-2.13379,2.2819,2.2819,0,0,0-.11035-.73828,3.00548,3.00548,0,0,0,1.53223-2.625,3.17518,3.17518,0,0,0-.18652-1.07812A3.20538,3.20538,0,0,0,34.19434,23.49414Zm-2.57324.92871A1.15266,1.15266,0,0,0,31,25.2002a1.10021,1.10021,0,0,0,.23389.97461.93018.93018,0,0,1,.21387.61328,1.064,1.064,0,0,1-.87012,1.02148,1.17072,1.17072,0,0,0-.76709,1.83105.94111.94111,0,0,1,.18066.58008,1.029,1.029,0,0,1-.27539.709,1.22083,1.22083,0,0,1-.84766.34473H20.061a3.2422,3.2422,0,0,1-3.23828-3.23828V21.75391a3.47409,3.47409,0,0,0,2.061-1.52246L20.09717,18.29a8.362,8.362,0,0,0,1.30225-4.46973V10.97656a.14007.14007,0,0,1,.0332-.085.13763.13763,0,0,1,.08447-.03223,3.11059,3.11059,0,0,1,3.03369,2.39844,2.92422,2.92422,0,0,1,.03271,1.10156l-.312,2.42188a1.622,1.622,0,0,0,.37744,1.28223,1.64255,1.64255,0,0,0,1.20264.5625h4.78516a1.18059,1.18059,0,0,1,1.12354.92578,1.09034,1.09034,0,0,1-.46484.96,1.1877,1.1877,0,0,0-.50586,1.08691,1.08975,1.08975,0,0,0,.73828.93652,1.00865,1.00865,0,0,1,.64844.96875A.93666.93666,0,0,1,31.62109,24.42285ZM14.87354,20.4082V31.97656l-.04834.00488v.125l-4.03613-.01367.01416-11.69824Z"/></g></g></svg>