<svg xmlns="http://www.w3.org/2000/svg" viewBox="0 0 461.55446 390.99953"><defs><style>.cls-1{fill:none;stroke:#000;stroke-miterlimit:10;stroke-width:3px;}.cls-12,.cls-2{font-size:9px;}.cls-10,.cls-2{font-family:MullerBold, Muller;font-weight:700;}.cls-3{letter-spacing:-0.01204em;}.cls-4{letter-spacing:-0.04503em;}.cls-5{letter-spacing:-0.00803em;}.cls-6{letter-spacing:-0.00597em;}.cls-7{letter-spacing:-0.01704em;}.cls-8{letter-spacing:-0.00705em;}.cls-9{letter-spacing:0.00011em;}.cls-10{font-size:5.34322px;}.cls-11{letter-spacing:-0.01096em;}.cls-12,.cls-21,.cls-25,.cls-30,.cls-33{font-family:MullerRegular, Muller;}.cls-13{letter-spacing:-0.01291em;}.cls-14{letter-spacing:-0.04405em;}.cls-15{letter-spacing:-0.03201em;}.cls-16{letter-spacing:-0.03602em;}.cls-17{letter-spacing:-0.02507em;}.cls-18{letter-spacing:-0.01302em;}.cls-19{letter-spacing:-0.04395em;}.cls-20{letter-spacing:-0.02203em;}.cls-21,.cls-39{font-size:12px;}.cls-21{fill:#898989;}.cls-22{letter-spacing:0.00008em;}.cls-23{letter-spacing:-0.01595em;}.cls-24{letter-spacing:-0.007em;}.cls-25{font-size:18px;}.cls-26{letter-spacing:-0.01801em;}.cls-27{letter-spacing:0.00005em;}.cls-28{letter-spacing:-0.02496em;}.cls-29{letter-spacing:-0.01506em;}.cls-30{font-size:6px;letter-spacing:-0.11393em;}.cls-31{letter-spacing:-0.00016em;}.cls-32{letter-spacing:-0.01807em;}.cls-33{font-size:8px;}.cls-34{letter-spacing:-0.02197em;}.cls-35{letter-spacing:-0.02698em;}.cls-36{letter-spacing:-0.02307em;}.cls-37{letter-spacing:-0.02295em;}.cls-38{letter-spacing:-0.00012em;}.cls-39{font-family:MyriadPro-Regular, Myriad Pro;}.cls-40{letter-spacing:-0.014em;}</style></defs><title>Ресурс 4</title><g id="Слой_2" data-name="Слой 2"><g id="Слой_1-2" data-name="Слой 1"><path d="M50.40842,93.87723q-2.22682-1.45029-3.53407-2.16541-1.38949-.73547-3.16639-1.85906a5.77781,5.77781,0,0,1-1.26663-1.4402,2.3612,2.3612,0,0,1-.20423-.97032A2.42661,2.42661,0,0,1,42.48221,86.38a2.86778,2.86778,0,0,1,.69455-.90909,3.66875,3.66875,0,0,1,1.04187-.64353,3.38617,3.38617,0,0,1,1.30742-.24511A4.61326,4.61326,0,0,1,48.958,85.95094a6.7572,6.7572,0,0,1,1.69562,3.96315h.51067V83.49953h-.51067a1.59468,1.59468,0,0,1-.34732.85807.84684.84684,0,0,1-.59243.20423.93084.93084,0,0,1-.429-.08168q-.26568-.102-.65367-.26556a7.89753,7.89753,0,0,0-3.1256-.71508,5.94205,5.94205,0,0,0-2.16541.3882A5.33912,5.33912,0,0,0,41.614,84.95a4.92155,4.92155,0,0,0-1.13376,1.56284,4.42017,4.42017,0,0,0-.40855,1.86919,4.32447,4.32447,0,0,0,.52089,2.11431,5.84655,5.84655,0,0,0,1.522,1.74664q1.7973,1.22566,4.10606,2.55352,1.20513.71534,2.08373,1.24619a4.4548,4.4548,0,0,1,1.27676,1.36866,2.88567,2.88567,0,0,1,.37789,1.3891,2.74061,2.74061,0,0,1-.25533,1.16442,2.89354,2.89354,0,0,1-.73543.97041,3.59231,3.59231,0,0,1-1.16442.66389,4.55332,4.55332,0,0,1-1.54232.24511,5.88983,5.88983,0,0,1-2.70674-.66389,5.58272,5.58272,0,0,1-1.08275-.73543,3.64623,3.64623,0,0,1-.766-.90909,9.95071,9.95071,0,0,1-.96019-3.003h-.51067v6.37367h.51067a1.71059,1.71059,0,0,1,.29622-.858.71131.71131,0,0,1,.54133-.20432,4.23358,4.23358,0,0,1,.59243.143q.51045.14317,1.10319.30644.59217.16383,1.11332.31666.52085.15317.64345.17366a8.71445,8.71445,0,0,0,1.51174.12256,6.521,6.521,0,0,0,2.36973-.41877,5.76985,5.76985,0,0,0,1.84875-1.12354,5.08122,5.08122,0,0,0,1.195-1.64452,4.71584,4.71584,0,0,0,.429-1.98153,4.63373,4.63373,0,0,0-.51067-2.11439A5.06543,5.06543,0,0,0,50.40842,93.87723Z"/><path d="M54.59624,84.41884H55.25a2.661,2.661,0,0,1,1.26654.32688,1.70563,1.70563,0,0,1,.38811.29622.97928.97928,0,0,1,.21454.41877,3.77956,3.77956,0,0,1,.10212.68433q.03066.419.03066,1.05209V99.18859a6.90561,6.90561,0,0,1-.13278,1.52187,1.92167,1.92167,0,0,1-.378.83755,1.07651,1.07651,0,0,1-.623.34732,4.68974,4.68974,0,0,1-.86821.07154h-.65375v.51067h7.94664v-.51067h-.65367A2.46735,2.46735,0,0,1,60.643,101.64a1.94435,1.94435,0,0,1-.39833-.29622.99.99,0,0,1-.23489-.41877,2.79583,2.79583,0,0,1-.1022-.67419q-.02053-.40834-.02035-1.06222V87.19712A6.77025,6.77025,0,0,1,60.02,85.6956a1.91913,1.91913,0,0,1,.37789-.83755,1.12931,1.12931,0,0,1,.62309-.35745,4.14489,4.14489,0,0,1,.86821-.08176h.65367v-.51067H54.59624Z"/><path d="M78.59961,98.84127a6.61911,6.61911,0,0,1-.715,1.04187,3.93508,3.93508,0,0,1-.75587.69455,3.27044,3.27044,0,0,1-.81719.40855,10.0714,10.0714,0,0,1-3.003.30644H71.96038a10.20854,10.20854,0,0,1-2.14505-.12256.91722.91722,0,0,1-.572-.59243,4.81216,4.81216,0,0,1-.143-1.3891V87.524a6.25831,6.25831,0,0,1,.20432-2.10417,1.78449,1.78449,0,0,1,.30644-.40855,1.52878,1.52878,0,0,1,.51067-.31666,3.58219,3.58219,0,0,1,.82741-.20423,9.15227,9.15227,0,0,1,1.25632-.07154v-.51067H63.789v.51067h.715a1.969,1.969,0,0,1,1.573.61287,3.79881,3.79881,0,0,1,.3882,2.16541V99.18859a4.47263,4.47263,0,0,1-.286,2.02241,1.9053,1.9053,0,0,1-1.67518.75587h-.715v.51067H78.17061L79.764,97.43173l-.44943-.08168A14.15806,14.15806,0,0,1,78.59961,98.84127Z"/><path d="M91.95982,84.41884a3.0494,3.0494,0,0,1,1.532.521,1.06642,1.06642,0,0,1,.44952.80689,7.23754,7.23754,0,0,1-.65358,2.18585L88.91589,98.67783,84.19705,87.81a6.14788,6.14788,0,0,1-.63331-2.14505,1.26153,1.26153,0,0,1,.07154-.43913.81374.81374,0,0,1,.28582-.35754,1.848,1.848,0,0,1,.62327-.27578,6.398,6.398,0,0,1,1.06222-.17366v-.51067h-7.579v.51067a6.96793,6.96793,0,0,1,1.08275.17366,1.80548,1.80548,0,0,1,.73543.37789,2.65851,2.65851,0,0,1,.56177.72521,11.431,11.431,0,0,1,.56177,1.21553L87.915,102.90653h.51067l6.47587-15.79117q.245-.59217.49023-1.052a3.46136,3.46136,0,0,1,.56177-.78653,2.841,2.841,0,0,1,.7253-.54133,3.39923,3.39923,0,0,1,1.0009-.31666v-.51067H91.95982Z"/><path d="M112.2248,100.37345a5.9582,5.9582,0,0,1-.65375.54133,2.50383,2.50383,0,0,1-.70486.337,4.34216,4.34216,0,0,1-.9498.16344q-.5519.04118-1.34839.04088h-3.146a4.92975,4.92975,0,0,1-.89887-.06124.66735.66735,0,0,1-.44935-.27586,1.23475,1.23475,0,0,1-.16353-.623q-.02053-.40847-.02044-1.10319V93.26435h4.06526a6.13874,6.13874,0,0,1,1.43.13278,1.65242,1.65242,0,0,1,.8275.44943,1.88989,1.88989,0,0,1,.42891.84777,11.88173,11.88173,0,0,1,.23489,1.32786h.51067V89.56676h-.51067a6.98024,6.98024,0,0,1-.16353,1.2053,1.76616,1.76616,0,0,1-.43913.83755,1.95239,1.95239,0,0,1-.86821.49032,5.24588,5.24588,0,0,1-1.45042.16344h-4.06526V84.9296h5.0866a10.56482,10.56482,0,0,1,1.5424.0919,1.96566,1.96566,0,0,1,.99085.41877,2.26048,2.26048,0,0,1,.62292.92953,10.14629,10.14629,0,0,1,.4393,1.60355h.32688V83.90817h-14.3v.51067h.65375a2.12366,2.12366,0,0,1,1.65465.55155,4.09772,4.09772,0,0,1,.34749,2.18585V99.209a6.31512,6.31512,0,0,1-.16353,1.79765.99669.99669,0,0,1-.286.429,1.71264,1.71264,0,0,1-.45957.29622,2.7972,2.7972,0,0,1-.5415.17366,2.63249,2.63249,0,0,1-.55155.06132h-.65375v.51067h14.3l1.61394-4.65769h-.55155A10.33572,10.33572,0,0,1,112.2248,100.37345Z"/><path d="M131.60114,101.211a5.39517,5.39517,0,0,1-1.042-.93975q-.521-.59217-1.19508-1.51165l-3.82-5.31136a6.341,6.341,0,0,0,3.45239-1.7773,4.34684,4.34684,0,0,0,1.1031-2.98251,4.14064,4.14064,0,0,0-.26573-1.4913,4.52089,4.52089,0,0,0-.72512-1.25632,4.65465,4.65465,0,0,0-1.07244-.96019,5.50463,5.50463,0,0,0-1.30733-.623,8.90492,8.90492,0,0,0-1.7773-.3371,25.45887,25.45887,0,0,0-2.57413-.11234h-6.76169v.51067h.71508a1.96914,1.96914,0,0,1,1.57289.61287,3.8,3.8,0,0,1,.388,2.16541V99.18859a4.47339,4.47339,0,0,1-.28582,2.02241,1.90524,1.90524,0,0,1-1.67509.75587h-.71508v.51067h7.967v-.51067h-.73534a4.80055,4.80055,0,0,1-.80706-.06132,1.061,1.061,0,0,1-.61287-.3371,1.84313,1.84313,0,0,1-.388-.83755,7.0124,7.0124,0,0,1-.13269-1.54232V93.79546q.2245.02066.42891.03066c.136.007.26556.01022.388.01022q.22476,0,.50062-.01022.27595-.01.62309-.03066l6.29191,8.68207h4.94369v-.51067a8.23811,8.23811,0,0,1-1.37888-.2452A3.84852,3.84852,0,0,1,131.60114,101.211Zm-9.918-8.25308c-.08176,0-.18743-.0032-.31666-.01022q-.19436-.01-.45957-.01022V85.21559a11.23473,11.23473,0,0,1,2.14488-.26564,4.41858,4.41858,0,0,1,1.61377.286,3.70368,3.70368,0,0,1,1.26663.807,3.54685,3.54685,0,0,1,.81728,1.2461,4.2807,4.2807,0,0,1,.28582,1.5832,3.89348,3.89348,0,0,1-.3371,1.62408,3.55331,3.55331,0,0,1-1.01112,1.2972,4.86118,4.86118,0,0,1-1.67509.858A7.97772,7.97772,0,0,1,121.6831,92.95792Z"/><path d="M150.32373,86.25737A9.099,9.099,0,0,0,147.484,84.235a8.086,8.086,0,0,0-3.39107-.73543,8.97987,8.97987,0,0,0-3.6975.75587,9.1449,9.1449,0,0,0-2.9315,2.05307,9.50544,9.50544,0,0,0-1.94065,3.05406,10.00316,10.00316,0,0,0-.70486,3.75883,10.76952,10.76952,0,0,0,.70486,3.96306,9.581,9.581,0,0,0,1.92021,3.09494,8.51423,8.51423,0,0,0,2.87018,2.01219,8.8662,8.8662,0,0,0,3.55459.715,8.57446,8.57446,0,0,0,3.5442-.74565,8.95393,8.95393,0,0,0,2.90084-2.06329,9.93469,9.93469,0,0,0,1.96126-3.11529,10.33426,10.33426,0,0,0,.72512-3.90182,9.81985,9.81985,0,0,0-2.676-6.8231Zm-.90909,11.02114a7.55539,7.55539,0,0,1-1.27685,2.63528,5.08123,5.08123,0,0,1-1.91016,1.52187,5.74623,5.74623,0,0,1-2.37978.49032,4.93453,4.93453,0,0,1-2.53325-.64353,5.41474,5.41474,0,0,1-1.84867-1.81809,8.97547,8.97547,0,0,1-1.12354-2.79872,15.81306,15.81306,0,0,1-.378-3.58517,14.99453,14.99453,0,0,1,.3882-3.56473,8.40061,8.40061,0,0,1,1.13376-2.69661,5.25653,5.25653,0,0,1,1.83862-1.716,5.09763,5.09763,0,0,1,2.50242-.60257,5.51362,5.51362,0,0,1,2.62506.60257A5.19754,5.19754,0,0,1,148.35225,86.86a8.4386,8.4386,0,0,1,1.14416,2.81916,17.11031,17.11031,0,0,1,.37781,3.769A14.02173,14.02173,0,0,1,149.41464,97.27851Z"/><path d="M154.53173,84.41884h.65375a2.53629,2.53629,0,0,1,.65375.08176,2.89185,2.89185,0,0,1,.61287.24511,1.25287,1.25287,0,0,1,.388.286,1.06621,1.06621,0,0,1,.21463.429,3.7882,3.7882,0,0,1,.102.68433q.03066.419.03066,1.05209V99.18859a6.91175,6.91175,0,0,1-.13269,1.52187,1.92366,1.92366,0,0,1-.378.83755,1.0762,1.0762,0,0,1-.62309.34732,4.68908,4.68908,0,0,1-.86821.07154h-.65375v.51067h7.96717v-.51067h-.67419a2.46781,2.46781,0,0,1-1.24619-.32688,1.94838,1.94838,0,0,1-.39825-.29622.98907.98907,0,0,1-.23489-.41877,2.79584,2.79584,0,0,1-.1022-.67419q-.02053-.40834-.02044-1.06222V93.36647h3.37063a3.95624,3.95624,0,0,1,1.1542.143,1.56712,1.56712,0,0,1,.73552.45965,1.91531,1.91531,0,0,1,.39842.80689,5.65223,5.65223,0,0,1,.14291,1.18486h.51067V89.68941h-.51067a7.01552,7.01552,0,0,1-.26556,1.2461,1.94975,1.94975,0,0,1-.44952.77631,1.53891,1.53891,0,0,1-.70468.39833,3.94421,3.94421,0,0,1-1.01129.11234h-3.37063V84.9296h4.0857a10.39132,10.39132,0,0,1,1.57306.10212,2.74466,2.74466,0,0,1,1.13376.429,2.68134,2.68134,0,0,1,.81711.92944,7.05646,7.05646,0,0,1,.60265,1.60364h.30644V83.90817H154.53173Z"/><path d="M170.11858,83.90817v.51067h.65375a2.53629,2.53629,0,0,1,.65375.08176,2.89185,2.89185,0,0,1,.61287.24511,1.25287,1.25287,0,0,1,.388.286,1.06621,1.06621,0,0,1,.21463.429,3.78821,3.78821,0,0,1,.102.68433q.03066.419.03066,1.05209V99.18859a6.91176,6.91176,0,0,1-.13269,1.52187,1.92366,1.92366,0,0,1-.378.83755,1.0762,1.0762,0,0,1-.62309.34732,4.68908,4.68908,0,0,1-.86821.07154h-.65375v.51067h7.96717v-.51067h-.67419a2.46781,2.46781,0,0,1-1.24619-.32688,1.94838,1.94838,0,0,1-.39825-.29622.98907.98907,0,0,1-.23489-.41877,2.79584,2.79584,0,0,1-.1022-.67419q-.02053-.40834-.02044-1.06222V93.36647h3.37063a3.95624,3.95624,0,0,1,1.1542.143,1.56712,1.56712,0,0,1,.73552.45965,1.91531,1.91531,0,0,1,.39842.80689,5.65223,5.65223,0,0,1,.14291,1.18486h.51067V89.68941h-.51067a7.01552,7.01552,0,0,1-.26556,1.2461,1.94975,1.94975,0,0,1-.44952.77631,1.53891,1.53891,0,0,1-.70468.39833,3.94421,3.94421,0,0,1-1.01129.11234h-3.37063V84.9296h4.0857a10.39132,10.39132,0,0,1,1.57306.10212,2.74466,2.74466,0,0,1,1.13376.429,2.68134,2.68134,0,0,1,.81711.92944,7.05646,7.05646,0,0,1,.60265,1.60364h.30644V83.90817Z"/><path class="cls-1" d="M210.5,389.49953H13.5a12.03528,12.03528,0,0,1-12-12v-329C1.5,41.89953,105.56785,2.5,112.16785,2.5h0C118.76785,2.5,222.5,41.89953,222.5,48.49953v329A12.03528,12.03528,0,0,1,210.5,389.49953Z"/><circle class="cls-1" cx="112" cy="33.99953" r="13.5"/><rect x="40" y="155.99953" width="144" height="2"/><text class="cls-2" transform="translate(40 148.24953)">Проба</text><rect x="40" y="182.87453" width="144" height="2"/><text class="cls-2" transform="translate(40 175.12454)">А<tspan class="cls-3" x="6.65137" y="0">р</tspan><tspan x="12.14063" y="0">тик</tspan><tspan class="cls-4" x="26.67578" y="0">у</tspan><tspan x="31.33789" y="0">л</tspan></text><rect x="40.00004" y="209.74953" width="144" height="2"/><text class="cls-2" transform="translate(40.00007 201.99953)"><tspan class="cls-5">М</tspan><tspan x="8.09082" y="0">а</tspan><tspan class="cls-6" x="13.1582" y="0">с</tspan><tspan x="17.54102" y="0">са</tspan></text><rect x="40.00004" y="236.6037" width="144" height="2"/><text class="cls-2" transform="translate(40.00007 228.85369)"><tspan class="cls-7">Р</tspan><tspan x="5.84961" y="0">азмер</tspan></text><rect x="40" y="283.46828" width="144" height="2"/><text class="cls-2" transform="translate(40 255.71828)">Вс<tspan class="cls-8" x="10.62012" y="0">т</tspan><tspan x="14.84082" y="0">ав</tspan><tspan class="cls-6" x="24.84863" y="0">к</tspan><tspan class="cls-9" x="29.72656" y="0">а</tspan></text><rect x="64" y="322.49953" width="4" height="31.5"/><rect x="72.25" y="322.49953" width="4" height="24"/><rect x="80.5" y="322.49953" width="4" height="24"/><rect x="89.75" y="322.49953" width="8.5" height="24"/><rect x="103.5" y="322.49953" width="1.5" height="24"/><rect x="110.25" y="322.49953" width="5.75" height="24"/><rect x="120" y="322.49953" width="2.5" height="24"/><rect x="126.5" y="322.49953" width="1.5" height="24"/><rect x="131" y="322.49953" width="1" height="24"/><rect x="136.75" y="322.49953" width="8.5" height="24"/><rect x="148" y="322.49953" width="4" height="24"/><rect x="156" y="322.49953" width="4" height="31.5"/><text class="cls-10" transform="translate(73.63721 353.94485)"><tspan xml:space="preserve">2    8    9    9    3    4    0    0    0    1</tspan></text><path d="M287.96287,92.87723q-2.22682-1.45029-3.53407-2.16541-1.38949-.73547-3.16639-1.85906a5.77781,5.77781,0,0,1-1.26663-1.4402,2.3612,2.3612,0,0,1-.20423-.97032,2.42661,2.42661,0,0,1,.24511-1.06222,2.86778,2.86778,0,0,1,.69455-.90909,3.66875,3.66875,0,0,1,1.04187-.64353,3.38617,3.38617,0,0,1,1.30742-.24511,4.61326,4.61326,0,0,1,3.43195,1.36866,6.7572,6.7572,0,0,1,1.69562,3.96315h.51067V82.49953h-.51067a1.59468,1.59468,0,0,1-.34732.85807.84684.84684,0,0,1-.59243.20423.93084.93084,0,0,1-.429-.08168q-.26569-.102-.65367-.26556a7.89753,7.89753,0,0,0-3.1256-.71508,5.94206,5.94206,0,0,0-2.16541.3882A5.33912,5.33912,0,0,0,279.16846,83.95a4.92155,4.92155,0,0,0-1.13376,1.56284,4.42017,4.42017,0,0,0-.40855,1.86919,4.32447,4.32447,0,0,0,.52089,2.11431,5.84655,5.84655,0,0,0,1.522,1.74664q1.7973,1.22566,4.10606,2.55352,1.20513.71534,2.08373,1.24619a4.4548,4.4548,0,0,1,1.27676,1.36866,2.88567,2.88567,0,0,1,.37789,1.3891,2.74061,2.74061,0,0,1-.25533,1.16442,2.89354,2.89354,0,0,1-.73543.97041,3.59231,3.59231,0,0,1-1.16442.66389,4.55332,4.55332,0,0,1-1.54232.24511,5.88983,5.88983,0,0,1-2.70674-.66389,5.58272,5.58272,0,0,1-1.08275-.73543,3.64623,3.64623,0,0,1-.766-.90909,9.95071,9.95071,0,0,1-.96019-3.003h-.51067v6.37367h.51067a1.71059,1.71059,0,0,1,.29622-.858.71131.71131,0,0,1,.54133-.20432,4.23358,4.23358,0,0,1,.59243.143q.51045.14317,1.10319.30644.59217.16383,1.11332.31666.52085.15317.64345.17366a8.71445,8.71445,0,0,0,1.51174.12256,6.521,6.521,0,0,0,2.36973-.41877,5.76985,5.76985,0,0,0,1.84875-1.12354,5.08122,5.08122,0,0,0,1.195-1.64452,4.71584,4.71584,0,0,0,.429-1.98153,4.63373,4.63373,0,0,0-.51067-2.11439A5.06543,5.06543,0,0,0,287.96287,92.87723Z"/><path d="M292.15069,83.41884h.65375a2.661,2.661,0,0,1,1.26654.32688,1.70563,1.70563,0,0,1,.38811.29622.97928.97928,0,0,1,.21454.41877,3.77957,3.77957,0,0,1,.10212.68433q.03066.419.03066,1.05209V98.18859a6.90561,6.90561,0,0,1-.13278,1.52187,1.92167,1.92167,0,0,1-.378.83755,1.07651,1.07651,0,0,1-.623.34732,4.68974,4.68974,0,0,1-.86821.07154h-.65375v.51067h7.94664v-.51067h-.65367a2.46735,2.46735,0,0,1-1.24619-.32688,1.94435,1.94435,0,0,1-.39833-.29622.99.99,0,0,1-.23489-.41877,2.79584,2.79584,0,0,1-.1022-.67419q-.02053-.40834-.02035-1.06222V86.19712a6.77025,6.77025,0,0,1,.13278-1.50152,1.91913,1.91913,0,0,1,.37789-.83755,1.12931,1.12931,0,0,1,.62309-.35745,4.14489,4.14489,0,0,1,.86821-.08176h.65367v-.51067h-7.94664Z"/><path d="M316.15407,97.84127a6.6191,6.6191,0,0,1-.715,1.04187,3.93508,3.93508,0,0,1-.75587.69455,3.27044,3.27044,0,0,1-.81719.40855,10.0714,10.0714,0,0,1-3.003.30644h-1.34822a10.20855,10.20855,0,0,1-2.14505-.12256.91722.91722,0,0,1-.572-.59243,4.81216,4.81216,0,0,1-.143-1.3891V86.524a6.25831,6.25831,0,0,1,.20432-2.10417,1.78449,1.78449,0,0,1,.30644-.40855,1.52878,1.52878,0,0,1,.51067-.31666,3.58219,3.58219,0,0,1,.82741-.20423,9.15227,9.15227,0,0,1,1.25632-.07154v-.51067h-8.41652v.51067h.715a1.969,1.969,0,0,1,1.573.61287,3.79881,3.79881,0,0,1,.3882,2.16541V98.18859a4.47263,4.47263,0,0,1-.286,2.02241,1.9053,1.9053,0,0,1-1.67518.75587h-.715v.51067h14.38163l1.59342-5.04581-.44943-.08168A14.15807,14.15807,0,0,1,316.15407,97.84127Z"/><path d="M329.51427,83.41884a3.0494,3.0494,0,0,1,1.532.521,1.06642,1.06642,0,0,1,.44952.80689,7.23754,7.23754,0,0,1-.65358,2.18585l-4.37187,10.74528L321.75151,86.81a6.14788,6.14788,0,0,1-.63331-2.14505,1.26153,1.26153,0,0,1,.07154-.43913.81374.81374,0,0,1,.28582-.35754,1.848,1.848,0,0,1,.62327-.27578,6.398,6.398,0,0,1,1.06222-.17366v-.51067h-7.579v.51067a6.96793,6.96793,0,0,1,1.08275.17366,1.80548,1.80548,0,0,1,.73543.37789,2.65851,2.65851,0,0,1,.56177.72521,11.431,11.431,0,0,1,.56177,1.21553l6.94566,15.99541h.51067L332.456,86.11536q.245-.59217.49023-1.052a3.46136,3.46136,0,0,1,.56177-.78653,2.841,2.841,0,0,1,.7253-.54133,3.39923,3.39923,0,0,1,1.0009-.31666v-.51067h-5.71991Z"/><path d="M349.77926,99.37345a5.95821,5.95821,0,0,1-.65375.54133,2.50384,2.50384,0,0,1-.70486.337,4.34216,4.34216,0,0,1-.9498.16344q-.5519.04118-1.34839.04088h-3.146a4.92975,4.92975,0,0,1-.89887-.06124.66735.66735,0,0,1-.44935-.27586,1.23475,1.23475,0,0,1-.16353-.623q-.02053-.40847-.02044-1.10319V92.26435h4.06526a6.13874,6.13874,0,0,1,1.43.13278,1.65242,1.65242,0,0,1,.8275.44943,1.88989,1.88989,0,0,1,.42891.84777,11.88173,11.88173,0,0,1,.23489,1.32786h.51067V88.56676h-.51067a6.98024,6.98024,0,0,1-.16353,1.2053,1.76616,1.76616,0,0,1-.43913.83755,1.95239,1.95239,0,0,1-.86821.49032,5.24588,5.24588,0,0,1-1.45042.16344h-4.06526V83.9296h5.0866a10.56482,10.56482,0,0,1,1.5424.0919,1.96566,1.96566,0,0,1,.99085.41877,2.26048,2.26048,0,0,1,.62292.92953,10.14629,10.14629,0,0,1,.4393,1.60355h.32688V82.90817h-14.3v.51067h.65375a2.12366,2.12366,0,0,1,1.65465.55155,4.09772,4.09772,0,0,1,.34749,2.18585V98.209a6.31512,6.31512,0,0,1-.16353,1.79765.99669.99669,0,0,1-.286.429,1.71264,1.71264,0,0,1-.45957.29622,2.7972,2.7972,0,0,1-.5415.17366,2.63249,2.63249,0,0,1-.55155.06132h-.65375v.51067h14.3l1.61394-4.65769h-.55155A10.33572,10.33572,0,0,1,349.77926,99.37345Z"/><path d="M369.1556,100.211a5.39517,5.39517,0,0,1-1.042-.93975q-.521-.59217-1.19508-1.51165l-3.82-5.31136a6.341,6.341,0,0,0,3.45239-1.7773,4.34684,4.34684,0,0,0,1.1031-2.98251,4.14064,4.14064,0,0,0-.26573-1.4913,4.52089,4.52089,0,0,0-.72512-1.25632,4.65465,4.65465,0,0,0-1.07244-.96019,5.50463,5.50463,0,0,0-1.30733-.623,8.90492,8.90492,0,0,0-1.7773-.3371,25.45887,25.45887,0,0,0-2.57413-.11234h-6.76169v.51067h.71508a1.96914,1.96914,0,0,1,1.57289.61287,3.8,3.8,0,0,1,.388,2.16541V98.18859a4.47339,4.47339,0,0,1-.28582,2.02241,1.90524,1.90524,0,0,1-1.67509.75587h-.71508v.51067h7.967v-.51067H360.402a4.80055,4.80055,0,0,1-.80706-.06132,1.061,1.061,0,0,1-.61287-.3371,1.84313,1.84313,0,0,1-.388-.83755,7.01241,7.01241,0,0,1-.13269-1.54232V92.79546q.2245.02066.42891.03066c.136.007.26556.01022.388.01022q.22476,0,.50062-.01022.27595-.01.62309-.03066l6.29191,8.68207h4.94369v-.51067a8.23811,8.23811,0,0,1-1.37888-.2452A3.84852,3.84852,0,0,1,369.1556,100.211Zm-9.918-8.25308c-.08176,0-.18743-.0032-.31666-.01022q-.19436-.01-.45957-.01022V84.21559a11.23473,11.23473,0,0,1,2.14488-.26564,4.41858,4.41858,0,0,1,1.61377.286,3.70368,3.70368,0,0,1,1.26663.807,3.54685,3.54685,0,0,1,.81728,1.2461,4.2807,4.2807,0,0,1,.28582,1.5832,3.89348,3.89348,0,0,1-.3371,1.62408,3.55331,3.55331,0,0,1-1.01112,1.2972,4.86118,4.86118,0,0,1-1.67509.858A7.97772,7.97772,0,0,1,359.23756,91.95792Z"/><path d="M387.87819,85.25737A9.099,9.099,0,0,0,385.0385,83.235a8.086,8.086,0,0,0-3.39107-.73543,8.97987,8.97987,0,0,0-3.6975.75587,9.1449,9.1449,0,0,0-2.9315,2.05307,9.50544,9.50544,0,0,0-1.94065,3.05406,10.00316,10.00316,0,0,0-.70486,3.75883,10.76952,10.76952,0,0,0,.70486,3.96306,9.581,9.581,0,0,0,1.92021,3.09494,8.51423,8.51423,0,0,0,2.87018,2.01219,8.8662,8.8662,0,0,0,3.55459.715,8.57446,8.57446,0,0,0,3.5442-.74565,8.95393,8.95393,0,0,0,2.90084-2.06329,9.93469,9.93469,0,0,0,1.96126-3.11529,10.33426,10.33426,0,0,0,.72512-3.90182,9.81985,9.81985,0,0,0-2.676-6.8231Zm-.90909,11.02114a7.55539,7.55539,0,0,1-1.27685,2.63528,5.08123,5.08123,0,0,1-1.91016,1.52187,5.74623,5.74623,0,0,1-2.37978.49032,4.93453,4.93453,0,0,1-2.53325-.64353,5.41474,5.41474,0,0,1-1.84867-1.81809,8.97547,8.97547,0,0,1-1.12354-2.79872,15.81306,15.81306,0,0,1-.378-3.58517,14.99453,14.99453,0,0,1,.3882-3.56473,8.40061,8.40061,0,0,1,1.13376-2.69661,5.25653,5.25653,0,0,1,1.83862-1.716,5.09763,5.09763,0,0,1,2.50242-.60257,5.51362,5.51362,0,0,1,2.62506.60257A5.19754,5.19754,0,0,1,385.9067,85.86a8.4386,8.4386,0,0,1,1.14416,2.81916,17.11031,17.11031,0,0,1,.37781,3.769A14.02173,14.02173,0,0,1,386.9691,96.27851Z"/><path d="M392.08619,83.41884h.65375a2.53629,2.53629,0,0,1,.65375.08176,2.89185,2.89185,0,0,1,.61287.24511,1.25287,1.25287,0,0,1,.388.286,1.06621,1.06621,0,0,1,.21463.429,3.78821,3.78821,0,0,1,.102.68433q.03066.419.03066,1.05209V98.18859a6.91176,6.91176,0,0,1-.13269,1.52187,1.92366,1.92366,0,0,1-.378.83755,1.0762,1.0762,0,0,1-.62309.34732,4.68908,4.68908,0,0,1-.86821.07154h-.65375v.51067h7.96717v-.51067h-.67419A2.46781,2.46781,0,0,1,398.133,100.64a1.94838,1.94838,0,0,1-.39825-.29622.98907.98907,0,0,1-.23489-.41877,2.79584,2.79584,0,0,1-.1022-.67419q-.02053-.40834-.02044-1.06222V92.36647h3.37063a3.95624,3.95624,0,0,1,1.1542.143,1.56712,1.56712,0,0,1,.73552.45965,1.91531,1.91531,0,0,1,.39842.80689,5.65223,5.65223,0,0,1,.14291,1.18486h.51067V88.68941h-.51067a7.01552,7.01552,0,0,1-.26555,1.2461,1.94975,1.94975,0,0,1-.44952.77631,1.53891,1.53891,0,0,1-.70468.39833,3.94421,3.94421,0,0,1-1.01129.11234h-3.37063V83.9296h4.0857a10.39132,10.39132,0,0,1,1.57306.10212,2.74466,2.74466,0,0,1,1.13376.429,2.68134,2.68134,0,0,1,.81711.92944,7.05646,7.05646,0,0,1,.60265,1.60364h.30644V82.90817H392.08619Z"/><path d="M407.673,82.90817v.51067h.65375a2.53629,2.53629,0,0,1,.65375.08176,2.89185,2.89185,0,0,1,.61287.24511,1.25287,1.25287,0,0,1,.388.286,1.06621,1.06621,0,0,1,.21463.429,3.78821,3.78821,0,0,1,.102.68433q.03066.419.03066,1.05209V98.18859a6.91176,6.91176,0,0,1-.13269,1.52187,1.92366,1.92366,0,0,1-.378.83755,1.0762,1.0762,0,0,1-.62309.34732,4.68908,4.68908,0,0,1-.86821.07154H407.673v.51067h7.96717v-.51067H414.966a2.46781,2.46781,0,0,1-1.24619-.32688,1.94838,1.94838,0,0,1-.39825-.29622.98907.98907,0,0,1-.23489-.41877,2.79584,2.79584,0,0,1-.1022-.67419q-.02053-.40834-.02044-1.06222V92.36647h3.37063a3.95624,3.95624,0,0,1,1.1542.143,1.56712,1.56712,0,0,1,.73552.45965,1.91531,1.91531,0,0,1,.39842.80689,5.65224,5.65224,0,0,1,.14291,1.18486h.51067V88.68941h-.51067a7.01552,7.01552,0,0,1-.26556,1.2461,1.94975,1.94975,0,0,1-.44952.77631,1.53891,1.53891,0,0,1-.70468.39833,3.94421,3.94421,0,0,1-1.01129.11234H412.964V83.9296h4.0857a10.39132,10.39132,0,0,1,1.57306.10212,2.74466,2.74466,0,0,1,1.13376.429,2.68134,2.68134,0,0,1,.81711.92944,7.05646,7.05646,0,0,1,.60265,1.60364h.30644V82.90817Z"/><path class="cls-1" d="M448.05446,388.49953h-197a12.03528,12.03528,0,0,1-12-12v-329c0-6.6,104.06785-45.99953,110.66785-45.99953h0c6.6,0,110.33215,39.39953,110.33215,45.99953v329A12.03528,12.03528,0,0,1,448.05446,388.49953Z"/><circle class="cls-1" cx="349.55446" cy="32.99953" r="13.5"/><path d="M419.55457,156.99953v23.5h-140v-23.5h140m2-2h-144v27.5h144v-27.5Z"/><text class="cls-2" transform="translate(277.55454 147.24953)"><tspan class="cls-3">Ц</tspan><tspan x="7.12793" y="0">ена за грамм</tspan></text><path d="M419.55459,209.33288v23.5h-140v-23.5h140m2-2h-144v27.5h144v-27.5Z"/><text class="cls-2" transform="translate(277.5546 199.58288)"><tspan class="cls-3">Ц</tspan><tspan x="7.12793" y="0">ена за и</tspan><tspan class="cls-6" x="41.17383" y="0">з</tspan><tspan class="cls-11" x="45.50293" y="0">д</tspan><tspan x="51.27246" y="0">елие</tspan></text><text class="cls-12" transform="translate(264.03785 260.45884)">ОСТ 1<tspan class="cls-13" x="24.86621" y="0">1</tspan><tspan class="cls-14" x="28.62012" y="0">7</tspan><tspan class="cls-15" x="33.06543" y="0">-</tspan><tspan x="37.14258" y="0">3-00</tspan><tspan class="cls-16" x="59.44434" y="0">2</tspan><tspan class="cls-17" x="64.28613" y="0">-</tspan><tspan x="68.42578" y="0">95 ТУ 1</tspan><tspan class="cls-18" x="98.69238" y="0">1</tspan><tspan class="cls-19" x="102.44531" y="0">7</tspan><tspan x="106.8916" y="0">-4</tspan><tspan class="cls-20" x="117.06152" y="0">-</tspan><tspan x="121.22852" y="0">2099</tspan><tspan class="cls-20" x="143.88086" y="0">-</tspan><tspan x="148.04785" y="0">2002</tspan></text><text class="cls-21" transform="translate(253.30378 290.49953)">Произв<tspan class="cls-18" x="43.01953" y="0">о</tspan><tspan class="cls-22" x="49.99121" y="0">ди</tspan><tspan class="cls-23" x="64.66699" y="0">т</tspan><tspan x="70.0791" y="0">ель: АлмазБрил</tspan><tspan class="cls-24" x="161.46973" y="0">ь</tspan><tspan x="167.58984" y="0">ян</tspan><tspan class="cls-23" x="181.12598" y="0">т</tspan><tspan x="186.53809" y="0">с</tspan></text><text class="cls-25" transform="translate(272.98328 355.83286)">8 <tspan class="cls-26" x="16.12793" y="0">(</tspan><tspan class="cls-27" x="20.9873" y="0">80</tspan><tspan class="cls-28" x="45.28711" y="0">0</tspan><tspan x="57.49121" y="0">) 707 43 68</tspan></text><text class="cls-21" transform="translate(280.98737 309.83287)">Импо<tspan class="cls-29" x="31.42773" y="0">р</tspan><tspan class="cls-23" x="38.69922" y="0">т</tspan><tspan class="cls-22" x="44.11133" y="0">ер: </tspan><tspan class="cls-24" x="63.8877" y="0">С</tspan><tspan x="71.69922" y="0">ильверофф</tspan></text><text class="cls-30" transform="translate(315.4629 335.16588)">Т<tspan class="cls-31" x="2.94043" y="0">елефон </tspan><tspan class="cls-32" x="25.95605" y="0">г</tspan><tspan class="cls-31" x="28.5" y="0">орячей линии</tspan></text><text class="cls-33" transform="translate(305.57911 370.99953)"><tspan class="cls-34">w w w</tspan><tspan x="22.25586" y="0" xml:space="preserve"> . s i l</tspan><tspan class="cls-35" x="39.38379" y="0" xml:space="preserve"> v</tspan><tspan x="45.23145" y="0" xml:space="preserve"> e </tspan><tspan class="cls-34" x="53.59961" y="0">r</tspan><tspan x="56.35156" y="0" xml:space="preserve"> o </tspan><tspan class="cls-36" x="65.08789" y="0">f</tspan><tspan x="67.95117" y="0"> </tspan><tspan class="cls-37" x="69.94336" y="0">f</tspan><tspan class="cls-38" x="72.80762" y="0" xml:space="preserve"> . </tspan><tspan class="cls-34" x="78.51172" y="0">r</tspan><tspan class="cls-38" x="81.26367" y="0" xml:space="preserve"> u</tspan></text><text class="cls-39" transform="translate(45.7743 286.0974)">15 <tspan class="cls-40" x="14.85547" y="0">p</tspan><tspan x="21.51563" y="0">x</tspan></text><text class="cls-39" transform="translate(45.7743 286.0974)">15 <tspan class="cls-40" x="14.85547" y="0">p</tspan><tspan x="21.51563" y="0">x</tspan></text></g></g></svg>