<svg xmlns="http://www.w3.org/2000/svg" viewBox="0 0 34 50"><title>Ресурс 73</title><g id="Слой_2" data-name="Слой 2"><g id="Слой_1-2" data-name="Слой 1"><path d="M33.707,10.293l-10-10A.99563.99563,0,0,0,23,0H1A1.00036,1.00036,0,0,0,0,1V49a.99972.99972,0,0,0,1,1H33a.99908.99908,0,0,0,1-1V11A.99736.99736,0,0,0,33.707,10.293ZM24,3.414,30.586,10H24ZM32,48H2V2H22v9a.99972.99972,0,0,0,1,1h9Z"/><path d="M7,8h8a1,1,0,0,0,0-2H7A1,1,0,0,0,7,8Z"/><path d="M6,19a1.00036,1.00036,0,0,0,1,1H27a1,1,0,0,0,0-2H7A1.00036,1.00036,0,0,0,6,19Z"/><path d="M24.664,35.43a10.4612,10.4612,0,0,1-3.736.127l-.158-.013a6.2621,6.2621,0,0,1-.808-.173,3.76152,3.76152,0,0,0-2.591-.066,3.67944,3.67944,0,0,0-1.53,2.713q0-.6915-.004-1.383c-.004-.848-.008-1.695.004-2.542a1,1,0,0,0-1.852-.538,21.35515,21.35515,0,0,1-1.616,2.176c-.538.666-1.094,1.354-1.582,2.09-.086.13-.165.246-.238.35-.024-.337-.042-.699-.057-1.014l-.023-.465a1.00039,1.00039,0,0,0-.864-.939,1.29293,1.29293,0,0,0-1.214.489,1.00015,1.00015,0,0,0,.138,1.682c.093,1.635.258,2.705,1.248,2.978,1.071.292,1.91-.815,2.678-1.976.41-.618.9-1.232,1.381-1.827.004.896.005,1.793-.018,2.688a.98388.98388,0,0,0,.673.936,1.00206,1.00206,0,0,0,.771-.044,1.6789,1.6789,0,0,0,.391.238c.002.047.003.09.005.13a.9994.9994,0,0,0,.903.949c.032.002.064.004.097.004a.99967.99967,0,0,0,.971-.765,2.84192,2.84192,0,0,1,.318-.749,2.64924,2.64924,0,0,0,.916-1.229,1.00042,1.00042,0,0,0-.407-1.161,1.12855,1.12855,0,0,0-.559-.158,1.73565,1.73565,0,0,1,.344-.838,4.58769,4.58769,0,0,1,1.227.21,7.11973,7.11973,0,0,0,1.142.229l.156.013a11.87239,11.87239,0,0,0,4.567-.236,1.00124,1.00124,0,0,0-.673-1.886Z"/><path d="M7,14h8a1,1,0,0,0,0-2H7a1,1,0,0,0,0,2Z"/><path d="M27,24H7a1,1,0,0,0,0,2H27a1,1,0,0,0,0-2Z"/></g></g></svg>