<svg xmlns="http://www.w3.org/2000/svg" viewBox="0 0 437.26318 162.23289"><defs><style>.cls-1{fill:#e6e6e6;}.cls-2{font-size:9.88112px;font-family:FiraSans-Light, Fira Sans;}.cls-3{letter-spacing:-0.10002em;}.cls-4{letter-spacing:-0.00791em;}.cls-5{letter-spacing:-0.00198em;}.cls-6{letter-spacing:-0.025em;}.cls-7{letter-spacing:-0.0001em;}.cls-8{letter-spacing:-0.00998em;}.cls-9{letter-spacing:-0.01196em;}.cls-10{letter-spacing:-0.01008em;}.cls-11{letter-spacing:0.0001em;}.cls-12{letter-spacing:-0.01502em;}.cls-13{letter-spacing:-0.02797em;}.cls-14{letter-spacing:-0.01403em;}.cls-15{letter-spacing:-0.03993em;}.cls-16{letter-spacing:-0.01295em;}.cls-17{letter-spacing:-0.00702em;}</style></defs><title>Ресурс 2</title><g id="Слой_2" data-name="Слой 2"><g id="Слой_1-2" data-name="Слой 1"><path class="cls-1" d="M306.43673,59.01626h-198.412a8.646,8.646,0,0,0-6.15942,2.57849L69.41159,94.54023a8.646,8.646,0,0,0-.214,11.90979l32.63772,35.60478a8.646,8.646,0,0,0,6.37342,2.80368h198.044a8.646,8.646,0,0,0,6.37342-2.80368L345.2639,106.45a8.646,8.646,0,0,0-.214-11.90979L312.59615,61.59474A8.646,8.646,0,0,0,306.43673,59.01626Z"/><path d="M149.3206,82.2671v39.34053h-8.43007V97.3849l-10.39737,15.79266h-4.8893L115.20649,97.32881v24.27882h-8.43007V82.2671h7.8119l13.48823,20.457,13.43215-20.457Z"/><path d="M170.2239,121.60764V82.2671H178.654V97.8909h6.3506l9.94806-15.6238H204.338l-12.75789,19.16457,13.48823,20.176h-9.32929l-10.7345-16.07371H178.654v16.07371Z"/><path d="M256.03958,82.2671v39.34053h-8.43007V105.75888H229.96233v15.84875h-8.43007V82.2671h8.43007V98.11585h17.64718V82.2671Z"/><path d="M299.255,121.60764V107.50123a32.68445,32.68445,0,0,1-9.94806,1.68626c-8.71111-.05669-14.38745-4.44-14.38745-13.54432V82.2671h8.43007v13.095c0,4.27112,3.37251,6.12564,8.09294,6.12564a21.058,21.058,0,0,0,7.8125-1.57348V82.2671h8.43007v39.34053Z"/><text class="cls-2" transform="translate(0 47.84943)">Шифр<tspan class="cls-3" x="0" y="11.85742">Г</tspan><tspan x="4.03125" y="11.85742">ос</tspan><tspan class="cls-4" x="14.30762" y="11.85742">у</tspan><tspan x="18.85352" y="11.85742">дарст</tspan><tspan class="cls-5" x="44.24707" y="11.85742">в</tspan><tspan x="49.66211" y="11.85742">енной</tspan><tspan x="0" y="23.71484">инспеции</tspan><tspan x="0" y="35.57227">пробирно</tspan><tspan class="cls-6" x="45.78906" y="35.57227">г</tspan><tspan class="cls-7" x="49.72168" y="35.57227">о</tspan><tspan x="0" y="47.42969">над</tspan><tspan class="cls-5" x="16.55078" y="47.42969">з</tspan><tspan class="cls-7" x="21.29395" y="47.42969">о</tspan><tspan class="cls-8" x="26.93555" y="47.42969">р</tspan><tspan x="32.57813" y="47.42969">а</tspan></text><path d="M129.175,72.51464c7.96475-11.575,7.82028-25.83481,7.32894-39.332-.035-.96239-1.5352-.967-1.5,0,.48192,13.23856.69619,27.20982-7.12414,38.57494-.54855.79719.75088,1.54814,1.29521.75708Z"/><text class="cls-2" transform="translate(133.39551 8.32501)"><tspan class="cls-9">К</tspan><tspan class="cls-10" x="5.4248" y="0">о</tspan><tspan x="10.96777" y="0">д </tspan><tspan class="cls-6" x="19.16895" y="0">г</tspan><tspan class="cls-8" x="23.10156" y="0">о</tspan><tspan x="28.64551" y="0">да вып</tspan><tspan class="cls-5" x="60.41211" y="0">у</tspan><tspan class="cls-11" x="65.0166" y="0">с</tspan><tspan class="cls-12" x="69.65137" y="0">к</tspan><tspan x="74.43359" y="0">а</tspan><tspan x="0" y="14.94531">А - 20</tspan><tspan class="cls-13" x="25.22559" y="14.94531">0</tspan><tspan x="30.38379" y="14.94531">1 </tspan><tspan class="cls-3" x="37.22168" y="14.94531">г</tspan><tspan x="40.41309" y="14.94531">., Б - 20</tspan><tspan class="cls-14" x="72.52539" y="14.94531">0</tspan><tspan x="77.82129" y="14.94531">2 </tspan><tspan class="cls-3" x="85.31152" y="14.94531">г</tspan><tspan x="88.50293" y="14.94531">., В - 20</tspan><tspan class="cls-10" x="120.90234" y="14.94531">0</tspan><tspan class="cls-11" x="126.2373" y="14.94531">3 </tspan><tspan class="cls-3" x="133.79688" y="14.94531">г</tspan><tspan x="136.98828" y="14.94531">., Г - 2004 </tspan><tspan class="cls-3" x="181.80762" y="14.94531">г</tspan><tspan class="cls-11" x="184.99902" y="14.94531">. и </tspan><tspan class="cls-15" x="198.40723" y="14.94531">т</tspan><tspan x="202.29102" y="14.94531">ак далее</tspan></text><text class="cls-2" transform="translate(357.57324 111.4588)">Индивид<tspan class="cls-16" x="40.48242" y="0">у</tspan><tspan x="44.97852" y="0">альный</tspan><tspan class="cls-17" x="0" y="11.85742">к</tspan><tspan class="cls-8" x="4.86133" y="11.85742">о</tspan><tspan x="10.40527" y="11.85742">д из</tspan><tspan class="cls-6" x="29.21875" y="11.85742">гот</tspan><tspan x="42.57715" y="11.85742">ови</tspan><tspan class="cls-6" x="59.50391" y="11.85742">т</tspan><tspan class="cls-8" x="63.53516" y="11.85742">е</tspan><tspan x="68.73242" y="11.85742">ля</tspan></text><path d="M263.45962,140.41627c12.1356,14.897,31.01088,23.39126,50.29616,21.57357,17.30836-1.63136,33.02164-11.5014,42.60619-25.88312.53684-.80554-.76182-1.55743-1.29521-.75708-9.58341,14.38-25.54684,24.11659-42.893,25.26814-18.41321,1.22238-36.09039-7.068-47.65343-21.26217-.60995-.74874-1.66559.31809-1.06066,1.06066Z"/><path d="M219.733,137.43674c7.9159-2.94026,16.145-4.172,24.51349-5.03951,8.35625-.86626,16.58472-1.66087,24.92325-.17789,13.23934,2.35456,26.38974,8.08974,39.855,3.8146.91669-.291.525-1.73971-.39876-1.44642-14.939,4.74305-29.46823-3.131-44.27387-4.55359-7.855-.75472-15.90212.34046-23.70447,1.25257a90.95372,90.95372,0,0,0-21.31342,4.70383c-.897.33319-.50892,1.78356.39876,1.44642Z"/><path d="M18.829,105.70323C42.13,132.74477,89.36069,158.74954,121.54026,130.603c.728-.63674-.33651-1.69405-1.06066-1.06066-31.53328,27.58121-77.88154,1.454-100.5899-24.89982-.63119-.73252-1.68814.33245-1.06066,1.06066Z"/></g></g></svg>