<svg xmlns="http://www.w3.org/2000/svg" viewBox="0 0 250.75 114.94681"><defs><style>.cls-1{fill:none;stroke:#000;stroke-miterlimit:10;}.cls-2{font-size:54px;font-family:Manrope-Thin, Manrope;}.cls-3{font-size:35px;font-family:MullerThin, Muller;}</style></defs><title>Ресурс 3</title><g id="Слой_2" data-name="Слой 2"><g id="Слой_1-2" data-name="Слой 1"><path class="cls-1" d="M238.25,10.94682,131.10272.79851a66.99927,66.99927,0,0,0-12.70483.00665L12.5,10.94682a12.03527,12.03527,0,0,0-12,12V92a12.03531,12.03531,0,0,0,12,12L119.64728,114.1483a66.99927,66.99927,0,0,0,12.70483-.00665L238.25,104a12.03531,12.03531,0,0,0,12-12V22.94682A12.03527,12.03527,0,0,0,238.25,10.94682Z"/><path d="M121.497,54.21057a26.84688,26.84688,0,0,0-2.61072-2.91913q-1.59274-1.77264-3.17664-3.55316c-.03107-2.16138.59607-4.47644-.26306-6.54755-1.048-2.52655-4.28143-2.3775-3.949-5.77057a.47408.47408,0,0,0-.01324-.124.50425.50425,0,0,0,.02246-.10193,6.95175,6.95175,0,0,0-1.93677-5.13818q-1.604-6.01941-3.7345-11.86951a.55894.55894,0,0,0-.926-.182.491.491,0,0,0-.11694.01257A20.11769,20.11769,0,0,0,94.79041,25.1474a.55924.55924,0,0,0-.17529-.1178C82.25024,19.87317,67.98633,23.527,60.277,34.68518,52.38287,46.111,56.85016,60.88306,65.73566,70.379a.49335.49335,0,0,0,.101.07166,13.72812,13.72812,0,0,1,1.9223,6.6499.5111.5111,0,0,0,.061.24127c.07843,3.37762.88153,6.702.49792,10.08929a.47418.47418,0,0,0,.03021.23517,16.71474,16.71474,0,0,0,.34735,5.5578c.30127,1.249.58643,2.8053,1.90942,3.29449a.48323.48323,0,0,0,.23932.027.49611.49611,0,0,0,.07513.01746c4.80988.14044,10.45154,1.45734,14.9906-.56464,3.438-1.53149,5.7912-3.24945,9.824-3.16339,3.36841.072,6.46588.71454,9.84161.17657a.40653.40653,0,0,0,.35944-.32434.49263.49263,0,0,0,.10516-.218c.82025-3.853.553-8.14355,1.59143-11.87024,1.43353-5.14478,5.80426-4.29376,9.44849-6.69031a.49528.49528,0,0,0,.05176-.05127.50128.50128,0,0,0,.07745-.024c1.68677-.92163,3.409-2.24481,3.56183-4.32227a3.65242,3.65242,0,0,0-1.54669-3.12158c.77777-.45166,1.47369-1.10449,1.26691-1.99878a2.36825,2.36825,0,0,0-1.56122-1.56628,2.06689,2.06689,0,0,0,1.25861-1.71814c.04187-1.18915-1.53131-2.09882-2.60748-2.19751-.15906-.1311.09558-.315.18549-.39984.00464-.00439.00537-.00946.00977-.01385a.5155.5155,0,0,0,.0542-.01172,9.25232,9.25232,0,0,1,2.7334-.754.50225.50225,0,0,0,.05756-.01819.52852.52852,0,0,0,.22858-.0675A2.28672,2.28672,0,0,0,121.497,54.21057ZM82.64966,66.06274c-4.03375,3.75134-10.0835,5.67236-13.94946,9.52057A15.18183,15.18183,0,0,0,67.15405,70.707c3.32672-6.88354,9.03-9.26221,14.62653-13.82562,2.8244-2.303,4.92792-5.4798,4.60632-9.16357.83917-.33014,1.6756-.66644,2.50574-1.0166C88.64343,54.17059,88.611,60.51892,82.64966,66.06274ZM79.59235,80.38257c-2.8725,2.7406-6.764,4.30316-10.17065,6.28088.20538-3.24884-.54175-6.44836-.56165-9.70074,2.58179-2.8537,6.775-4.45605,9.92346-6.587A38.8327,38.8327,0,0,0,83.525,66.65161,14.16071,14.16071,0,0,1,79.59235,80.38257ZM105.02728,19.0462q1.95245,5.42661,3.44855,10.993c-6.22418,3.15778-12.25842,6.68512-18.39392,10.00006C91.342,31.04254,95.80585,22.01184,105.02728,19.0462ZM61.18365,35.21509c7.52979-10.68164,21.0528-14.13519,32.99963-9.22961A32.8036,32.8036,0,0,0,88.944,40.64953c-1.36493.72931-2.73383,1.45056-4.11414,2.14813-6.32037,3.19427-13.2594,4.293-18.60052,9.26984-.49542.46161.24829,1.20288.74249.74243,5.54083-5.163,13.0777-6.24121,19.55408-9.739,7.47076-4.03479,14.81561-8.238,22.3941-12.07947a.49935.49935,0,0,0,.10785.0274,5.8,5.8,0,0,1,1.41919,3.7337c-.53735.33313-1.08966.63281-1.649.91669a19.14962,19.14962,0,0,0-4.81769,2.15607,32.12083,32.12083,0,0,0-2.95074,1.44232c-3.5661,2.01984-6.90027,3.98138-10.66687,5.6546C86.82715,46.493,83.06671,47.66138,79.61462,49.413c-.59821.30353-1.18054.63055-1.75739.96558A43.31391,43.31391,0,0,0,70.38306,54.838c-.56781.28845-1.14337.56476-1.73822.8114-.61536.25513-.34552,1.27148.27911,1.01251a59.60451,59.60451,0,0,0,8.02625-4.53046l6.861-3.39349q.77563-.3132,1.55481-.619c.4895,6.82275-7.69275,9.75031-12.06146,13.16626a24.36126,24.36126,0,0,0-6.80084,8.39288c-.01068-.01355-.01324-.02832-.02563-.04156C57.975,60.54919,53.46362,46.16687,61.18365,35.21509Zm8.179,55.74292a16.01214,16.01214,0,0,1,.00824-3.09045.51278.51278,0,0,0,.15851-.05591c3.01862-1.80811,6.42828-3.2981,9.2807-5.44244.58783,5.9292-2.98071,9.95673-7.87036,12.98407a.52289.52289,0,0,0-.12354.116C69.75061,94.95111,69.45917,91.89715,69.36267,90.958Zm49.6665-29.58575c-.358.68011-1.40021.89362-2.07477,1.07623a.52893.52893,0,0,0,.07336,1.0257.50075.50075,0,0,0,.25568.07129c.63672.0022,1.76788.20563,2.0777.87219.33679.72461-.96008,1.26465-1.49261,1.47211-.55438.216-.3985,1.03918.08716,1.045a2.50776,2.50776,0,0,1,1.53644,3.38806,5.64744,5.64744,0,0,1-2.81281,2.60394.23619.23619,0,0,1-.12921.07538c-3.24078,2.13123-6.96057,1.44849-9.207,5.17035A9.06677,9.06677,0,0,0,106.2085,82.723a61.78151,61.78151,0,0,1-1.1507,9.30676c-6.03943.88159-11.4209-1.34143-17.14349,1.51813a18.388,18.388,0,0,1-10.469,2.2655q-2.4603-.13541-4.9223-.23688c4.873-3.30609,8.10217-7.73181,7.24536-13.97333a14.65678,14.65678,0,0,0,4.68744-15.59271.51176.51176,0,0,0-.07733-.15863,21.64646,21.64646,0,0,0,1.659-1.895c.22943-.29706.43951-.59717.64172-.89862a7.3431,7.3431,0,0,0,4.827,4.41022c2.822.69592,5.01538-.89294,6.94037-2.7735.48419-.473-.25854-1.21515-.74249-.74243-1.57874,1.5423-3.29,2.95032-5.65558,2.53345-2.39191-.42157-3.86224-2.30872-4.67633-4.46185a.49811.49811,0,0,0-.02734-.0437c2.70612-4.81262,2.42755-10.13867,2.614-15.7406a87.93018,87.93018,0,0,0,10.08655-5.08112c3.33234-1.99463,7.02484-3.20618,10.36108-5.16339a3.39606,3.39606,0,0,0,1.58044,3.43011c1.45032.92065,2.4942,1.6181,2.7796,3.44843.25159,1.6134-.14276,3.31213-.10785,4.93848a.492.492,0,0,0,.01532.06805.50619.50619,0,0,0,.1308.4187q1.66553,1.87088,3.33905,3.7348c.75549.84088,4.03241,3.59558,2.21228,4.677a11.06327,11.06327,0,0,0-3.05542.866.4885.4885,0,0,0-.18207.131.50634.50634,0,0,0-.09442.05878,1.34282,1.34282,0,0,0-.55853,1.09015,1.2934,1.2934,0,0,0,.60205.98145.503.503,0,0,0,.24286.07227.51568.51568,0,0,0,.13574.03162C118.04327,59.95965,119.40259,60.66284,119.02917,61.37225Z"/><path d="M110.96423,45.11725a.52136.52136,0,0,0-.94519-.41187,14.89331,14.89331,0,0,1-3.85858,4.24908c-.53015.41821.21735,1.15668.74249.74243.1532-.12085.2973-.25323.44763-.378a.44419.44419,0,0,0,.278.17059c1.61035.31274,2.99506.26556,4.00391-1.17017.81927-1.16589.32837-2.27478-.63879-3.18378C110.98431,45.12677,110.97382,45.12518,110.96423,45.11725Zm-.2619,2.702a2.24787,2.24787,0,0,1-2.45776.718,14.81734,14.81734,0,0,0,2.15686-2.50018,3.12691,3.12691,0,0,1,.43793.55878A.933.933,0,0,1,110.70233,47.81927Z"/><path d="M112.04022,40.05261a9.31437,9.31437,0,0,0-3.2674,1.988c-.811.82971-1.43286,1.82983-2.21429,2.68866-.45392.4989.28656,1.24359.74249.74249.6944-.76318,1.26532-1.62006,1.94379-2.39417a7.83966,7.83966,0,0,1,3.07452-2.01251C112.93689,40.81366,112.66681,39.79748,112.04022,40.05261Z"/><text class="cls-2" transform="translate(138.40645 77.99528)">925</text><text class="cls-3" transform="translate(18.4065 84.99528)">м</text></g></g></svg>